<?xml version="1.0" encoding="utf-8"?>
<!-- Generator: Adobe Illustrator 24.1.0, SVG Export Plug-In . SVG Version: 6.00 Build 0)  -->
<svg version="1.1" id="Layer_1" xmlns="http://www.w3.org/2000/svg" xmlns:xlink="http://www.w3.org/1999/xlink" x="0px" y="0px"
	 viewBox="0 0 247.2 86.3" style="enable-background:new 0 0 247.2 86.3;" xml:space="preserve">
<g id="Layer_2_1_">
	<g id="Layer_1-2">
		<path d="M130.8,36.3c-0.9,0-1.8,0.4-2.4,1.1c-0.7,0.9-1.1,2-1,3.1c-0.1,1.1,0.3,2.2,1,3.1c0.6,0.7,1.5,1.1,2.4,1.1
			c0.9,0,1.8-0.4,2.4-1.1c0.7-0.9,1.1-2,1-3.1c0.1-1.1-0.3-2.2-1-3.1C132.6,36.7,131.7,36.3,130.8,36.3z"/>
		<path d="M147.2,36.2c-0.8,0-1.7,0.4-2.2,1c-0.6,0.9-0.9,1.9-0.9,3c-0.1,1.2,0.2,2.4,0.9,3.4c0.5,0.7,1.4,1.1,2.2,1.1
			c0.8,0,1.6-0.4,2.1-1c0.6-1,0.9-2.1,0.8-3.3c0.1-1.1-0.2-2.2-0.9-3.2C148.8,36.5,148,36.2,147.2,36.2z"/>
		<path d="M247.2,30.7l-74.1-3.9L178.6,0l-55,18.3l-55-18.1L74,26.9L0,31l61.8,15L24.5,69.4l71.6-8l27.5,24.9l27.5-25l71.6,7.7
			l-37.4-23.1L247.2,30.7z M104.4,44.9c-0.6,1-1.5,1.7-2.5,2.1c-1.3,0.5-2.7,0.7-4.1,0.7c-2,0.1-3.9-0.5-5.5-1.7
			c-1.3-1.2-2.2-2.9-2.3-4.8l3.7-0.4c0.1,1,0.6,2,1.3,2.7c0.8,0.6,1.8,0.9,2.8,0.9c1,0.1,2-0.2,2.8-0.8c0.6-0.4,0.9-1.1,0.9-1.8
			c0-0.4-0.1-0.8-0.4-1.1c-0.4-0.4-0.9-0.7-1.4-0.8c-0.4-0.2-1.5-0.4-3-0.8c-1.6-0.3-3-0.9-4.3-1.8c-1.9-1.6-2.3-4.4-0.9-6.5
			c0.6-0.9,1.4-1.5,2.3-1.9c1.2-0.5,2.4-0.7,3.7-0.7c1.9-0.1,3.8,0.4,5.3,1.5c1.2,1,1.9,2.5,1.9,4.1l-3.8,0.2
			c-0.1-0.8-0.5-1.6-1.1-2.1c-0.7-0.5-1.6-0.7-2.4-0.6c-0.9,0-1.8,0.2-2.6,0.7c-0.4,0.3-0.6,0.7-0.6,1.2c0,0.4,0.2,0.9,0.6,1.1
			c1.1,0.6,2.3,1,3.5,1.2c1.4,0.3,2.8,0.8,4.1,1.4c0.9,0.4,1.6,1.1,2.1,1.9C105.6,40.8,105.6,43.1,104.4,44.9L104.4,44.9z
			 M117.3,47.3v-7.2c0.1-0.9,0-1.8-0.2-2.7c-0.1-0.4-0.4-0.7-0.7-0.9c-0.4-0.2-0.8-0.4-1.3-0.3c-0.6,0-1.1,0.1-1.6,0.4
			c-0.5,0.3-0.8,0.8-1,1.3c-0.3,0.8-0.4,1.7-0.3,2.6v6.8h-3.6V28.6h3.6v6.9c1.5-1.9,4.2-2.6,6.4-1.6c0.6,0.2,1.1,0.6,1.4,1.1
			c0.3,0.5,0.6,1,0.7,1.6c0.1,0.9,0.2,1.8,0.2,2.7v8L117.3,47.3z M135.9,45.5c-1.3,1.3-3.1,2.1-5,2c-1.2,0-2.5-0.3-3.6-0.8
			c-1.1-0.5-2-1.4-2.6-2.5c-0.6-1.2-0.9-2.6-0.9-4c0-1.2,0.3-2.4,0.9-3.5c0.6-1.1,1.4-2,2.5-2.6c1.1-0.6,2.4-0.9,3.6-0.9
			c3.8-0.2,6.9,2.8,7.1,6.5c0,0.2,0,0.3,0,0.5C137.9,42.3,137.2,44.1,135.9,45.5z M152.2,45.6c-1,1.2-2.5,1.9-4,1.9
			c-0.7,0-1.4-0.1-2.1-0.5c-0.7-0.4-1.4-0.9-1.9-1.5v6.8h-3.6V33.6h3.4v2c0.4-0.7,1-1.2,1.7-1.6c0.8-0.4,1.6-0.7,2.5-0.6
			c1.5,0,3,0.7,4,1.8c1.2,1.5,1.8,3.3,1.7,5.2C154,42.3,153.4,44.1,152.2,45.6L152.2,45.6z"/>
	</g>
</g>
</svg>
