<svg xmlns="http://www.w3.org/2000/svg" viewBox="0 0 247.21 86.28"><defs><style>.cls-1{fill:#1d31e7;}</style></defs><g id="Layer_2" data-name="Layer 2"><g id="Layer_1-2" data-name="Layer 1"><path class="cls-1" d="M130.78,36.3a3.08,3.08,0,0,0-2.38,1.08,4.42,4.42,0,0,0-1,3.09,4.46,4.46,0,0,0,1,3.09,3.09,3.09,0,0,0,2.38,1.07,3,3,0,0,0,2.37-1.08,4.5,4.5,0,0,0,1-3.12,4.42,4.42,0,0,0-1-3.06A3,3,0,0,0,130.78,36.3Z"/><path class="cls-1" d="M147.21,36.17a2.84,2.84,0,0,0-2.2,1,4.55,4.55,0,0,0-.87,3,5.22,5.22,0,0,0,.92,3.37,2.81,2.81,0,0,0,2.23,1.09,2.63,2.63,0,0,0,2.1-1,5.18,5.18,0,0,0,.83-3.29,4.92,4.92,0,0,0-.87-3.16A2.69,2.69,0,0,0,147.21,36.17Z"/><path class="cls-1" d="M247.21,30.66l-74.05-3.94L178.56,0l-55,18.26L68.55.17,74,26.88,0,31l61.82,15L24.54,69.36l71.61-8,27.54,24.88,27.46-25,71.63,7.73L185.43,45.88Zm-142.8,14.2A5.26,5.26,0,0,1,101.87,47a10.82,10.82,0,0,1-4.1.7A8.19,8.19,0,0,1,92.27,46,7.14,7.14,0,0,1,90,41.23l3.71-.36A4.49,4.49,0,0,0,95,43.59a4.11,4.11,0,0,0,2.76.86,4.22,4.22,0,0,0,2.77-.78,2.29,2.29,0,0,0,.93-1.81,1.71,1.71,0,0,0-.39-1.13,3.19,3.19,0,0,0-1.38-.81c-.44-.15-1.46-.42-3-.81a10.46,10.46,0,0,1-4.3-1.84,4.91,4.91,0,0,1-.93-6.45,5.14,5.14,0,0,1,2.35-1.9,9.73,9.73,0,0,1,3.71-.66,8,8,0,0,1,5.35,1.54,5.42,5.42,0,0,1,1.89,4.12l-3.8.18A3.21,3.21,0,0,0,99.89,32a3.85,3.85,0,0,0-2.41-.63,4.39,4.39,0,0,0-2.6.69,1.37,1.37,0,0,0-.6,1.16,1.45,1.45,0,0,0,.57,1.14,10.06,10.06,0,0,0,3.5,1.24A18.7,18.7,0,0,1,102.46,37a5.27,5.27,0,0,1,2.09,1.9,5.84,5.84,0,0,1-.14,6Zm12.9,2.41,0-7.16a10.3,10.3,0,0,0-.21-2.71,1.71,1.71,0,0,0-.72-.91,2.34,2.34,0,0,0-1.31-.34,3,3,0,0,0-1.61.44,2.53,2.53,0,0,0-1,1.31,7.53,7.53,0,0,0-.32,2.59v6.79h-3.61l0-18.73h3.61l0,6.89a5.42,5.42,0,0,1,6.42-1.58A3.62,3.62,0,0,1,120,35a4.25,4.25,0,0,1,.7,1.58,14.41,14.41,0,0,1,.19,2.7l0,8Zm18.54-1.75a6.78,6.78,0,0,1-5,2,7.91,7.91,0,0,1-3.59-.83,5.79,5.79,0,0,1-2.59-2.47,8.12,8.12,0,0,1-.9-4,7.32,7.32,0,0,1,.88-3.46,6.08,6.08,0,0,1,2.51-2.56,7.5,7.5,0,0,1,3.63-.89,6.81,6.81,0,0,1,7.08,7A7,7,0,0,1,135.85,45.52Zm16.38.11a5.26,5.26,0,0,1-4,1.89,4.65,4.65,0,0,1-2.06-.45,6.85,6.85,0,0,1-1.94-1.52l0,6.83h-3.62l0-18.73h3.38v2A5.14,5.14,0,0,1,145.7,34a4.88,4.88,0,0,1,2.48-.64,5.22,5.22,0,0,1,4,1.84,7.48,7.48,0,0,1,1.67,5.16A7.7,7.7,0,0,1,152.23,45.63Z"/></g></g></svg>